<svg width="22" height="22" viewBox="0 0 22 22" fill="none" xmlns="http://www.w3.org/2000/svg">
<path d="M10.7698 0C16.6215 0.000729839 21.3648 4.74458 21.3648 10.5963C21.3648 16.4485 16.6207 21.1926 10.7686 21.1926C9.00699 21.1926 7.34581 20.7627 5.88426 20.0022L5.94298 20.03L0 21.353L1.32301 15.409C0.59436 14.0095 0.167008 12.3528 0.167008 10.5963C0.167008 4.74646 4.90736 0.00377429 10.7564 4.16822e-05H10.7567L10.7698 0ZM10.7698 20.1834C16.0647 20.1834 20.357 15.8911 20.357 10.5963C20.357 5.30147 16.0647 1.0092 10.7698 1.0092H10.7567C5.46466 1.01283 1.176 5.30372 1.176 10.5963C1.176 12.2456 1.59247 13.7976 2.32598 15.1529L2.30089 15.1023L2.38868 15.2667L1.33006 20.0229L6.08628 18.9643L6.25076 19.0521C7.55811 19.7631 9.1134 20.1818 10.7663 20.1834H10.7668H10.7698ZM12.3714 16.8753C10.2352 16.7627 8.3484 15.7813 7.04272 14.2809L7.03488 14.2717C4.39891 11.6054 4.25261 9.20363 4.60076 7.66162C4.84453 6.59032 5.34468 5.66026 6.03396 4.90596L6.02975 4.91061L6.38699 4.55336L9.8868 8.05319L9.6739 8.47907C9.5175 8.78101 9.42579 9.13822 9.42579 9.5169C9.42579 10.1575 9.68826 10.7368 10.1115 11.1531L10.1118 11.1534C10.527 11.5764 11.1047 11.8386 11.7437 11.8386H11.7511H11.7507C12.128 11.838 12.4839 11.7471 12.7982 11.5863L12.7851 11.5924L12.875 11.547L13.3472 11.5137L16.7532 14.9196L16.3959 15.2769C15.3374 16.2487 13.9254 16.8504 12.3732 16.8693L12.3694 16.8693L12.3714 16.8753ZM6.42436 6.01972C6.03191 6.56063 5.7366 7.19968 5.57929 7.89119L5.57262 7.92601C5.16897 9.79805 5.90567 11.6943 7.75446 13.5623C8.88784 14.8819 10.5182 15.747 12.3519 15.8652L12.3714 15.8662C13.4737 15.8502 14.4879 15.4858 15.312 14.8785L15.298 14.8883L13.0163 12.6066C12.6448 12.7629 12.2131 12.8541 11.7601 12.8548H11.7598C9.91814 12.847 8.42812 11.3522 8.42812 9.50943C8.42812 9.05964 8.51689 8.63056 8.67787 8.23878L8.66974 8.26105L6.42436 6.01972Z" fill="#7997FF"/>
</svg>
