<svg width="22" height="22" viewBox="0 0 22 22" fill="none" xmlns="http://www.w3.org/2000/svg">
<path d="M21.3552 21.3552H0V8.52693L3.89141 5.35211L4.79212 6.45499L1.42367 9.20272V19.9278H19.9316V9.20272L16.5679 6.45499L17.4686 5.35211L21.36 8.52693L21.3552 21.3552ZM10.6776 17.8986L0.29328 10.3416L1.13135 9.19036L10.6776 16.137L20.2248 9.19038L21.0629 10.3417L10.6776 17.8986ZM17.7296 12.4904H16.3059V1.42371H5.04934V12.4905H3.62559V0H17.7295L17.7296 12.4904ZM14.3032 5.0493H7.05196V3.62561H14.3032V5.0493ZM14.3032 8.67495H7.05196V7.25127H14.3032V8.67495ZM14.3032 12.2911H7.05196V10.8674H14.3032V12.2911Z" fill="#7997FF"/>
</svg>
