<svg width="22" height="22" viewBox="0 0 22 22" fill="none" xmlns="http://www.w3.org/2000/svg">
<path d="M10.6818 0.636353C4.78063 0.636353 0 5.41767 0 11.3182C0 17.2187 4.78132 22 10.6818 22C16.583 22 21.3636 17.2187 21.3636 11.3182C21.3636 5.41767 16.5823 0.636353 10.6818 0.636353ZM15.9283 7.95443L14.1751 16.216C14.0456 16.8017 13.6968 16.9437 13.2103 16.668L10.5399 14.6998L9.25183 15.9403C9.10987 16.0823 8.98927 16.2029 8.71361 16.2029L8.90312 13.4849L13.8519 9.01365C14.0676 8.82414 13.8044 8.71663 13.5197 8.90615L7.40353 12.7564L4.76754 11.9336C4.19485 11.753 4.18176 11.3609 4.88814 11.0852L15.1868 7.11367C15.6651 6.94138 16.0834 7.23082 15.9283 7.95443Z" fill="#7997FF"/>
</svg>
